# Blender v2.76 (sub 0) OBJ File: 'tank_test.blend'
# www.blender.org
o frontLeftWheelPhysiMesh_Sphere.010
v -0.231923 0.401703 -0.000000
v -0.401703 0.231923 -0.000000
v -0.463847 -0.000000 -0.000000
v -0.401703 -0.231923 -0.000000
v -0.231923 -0.401703 -0.000000
v -0.163995 0.401703 -0.163995
v -0.284047 0.231923 -0.284047
v -0.327989 -0.000000 -0.327989
v -0.284047 -0.231923 -0.284047
v -0.163995 -0.401703 -0.163995
v -0.000000 0.401703 -0.231923
v -0.000000 0.231923 -0.401703
v -0.000000 -0.000000 -0.463847
v -0.000000 -0.231923 -0.401703
v -0.000000 -0.401703 -0.231923
v -0.000000 0.463847 0.000000
v 0.163994 0.401703 -0.163995
v 0.284047 0.231923 -0.284047
v 0.327989 -0.000000 -0.327989
v 0.284047 -0.231923 -0.284047
v 0.163994 -0.401703 -0.163995
v 0.231923 0.401703 0.000000
v 0.401703 0.231923 -0.000000
v 0.463846 -0.000000 -0.000000
v 0.401703 -0.231923 -0.000000
v 0.231923 -0.401703 -0.000000
v -0.000000 -0.463847 -0.000000
v 0.163994 0.401703 0.163995
v 0.284047 0.231923 0.284047
v 0.327989 -0.000000 0.327989
v 0.284047 -0.231923 0.284047
v 0.163994 -0.401703 0.163995
v -0.000000 0.401703 0.231923
v -0.000000 0.231923 0.401703
v -0.000000 -0.000000 0.463847
v -0.000000 -0.231923 0.401703
v -0.000000 -0.401703 0.231923
v -0.163995 0.401703 0.163995
v -0.284047 0.231923 0.284047
v -0.327989 -0.000000 0.327989
v -0.284047 -0.231923 0.284047
v -0.163995 -0.401703 0.163995
vn -0.678600 0.678600 -0.281100
vn -0.678600 -0.678600 -0.281100
vn -0.896800 0.240300 -0.371500
vn -0.896800 -0.240300 -0.371500
vn -0.281100 -0.678600 -0.678600
vn -0.371500 0.240300 -0.896800
vn -0.371500 -0.240300 -0.896800
vn -0.281100 0.678600 -0.678600
vn 0.281100 -0.678600 -0.678600
vn 0.371500 0.240300 -0.896800
vn 0.371500 -0.240300 -0.896800
vn 0.281100 0.678600 -0.678600
vn 0.896800 0.240300 -0.371500
vn 0.896800 -0.240300 -0.371500
vn 0.678600 0.678600 -0.281100
vn 0.678600 -0.678600 -0.281100
vn 0.896800 -0.240300 0.371500
vn 0.678600 0.678600 0.281100
vn 0.678600 -0.678600 0.281100
vn 0.896800 0.240300 0.371500
vn 0.371500 -0.240300 0.896800
vn 0.281100 0.678600 0.678600
vn 0.281100 -0.678600 0.678600
vn 0.371500 0.240300 0.896800
vn -0.371500 -0.240300 0.896800
vn -0.281100 0.678600 0.678600
vn -0.281100 -0.678600 0.678600
vn -0.371500 0.240300 0.896800
vn -0.257300 0.960400 -0.106600
vn -0.257300 -0.960400 -0.106600
vn -0.106600 0.960400 -0.257300
vn -0.106600 -0.960400 -0.257300
vn 0.106600 0.960400 -0.257300
vn 0.106600 -0.960400 -0.257300
vn 0.257300 0.960400 -0.106600
vn 0.257300 -0.960400 -0.106600
vn 0.257300 0.960400 0.106600
vn 0.257300 -0.960400 0.106600
vn 0.106600 -0.960400 0.257300
vn 0.106600 0.960400 0.257300
vn -0.106600 -0.960400 0.257300
vn -0.106600 0.960400 0.257300
vn -0.257300 -0.960400 0.106600
vn -0.896800 -0.240300 0.371500
vn -0.678600 0.678600 0.281100
vn -0.678600 -0.678600 0.281100
vn -0.896800 0.240300 0.371500
vn -0.257300 0.960400 0.106600
s off
f 1//1 6//1 7//1
f 4//2 9//2 10//2
f 3//3 2//3 7//3
f 3//4 8//4 9//4
f 9//5 14//5 15//5
f 7//6 12//6 13//6
f 8//7 13//7 14//7
f 6//8 11//8 12//8
f 14//9 20//9 21//9
f 13//10 12//10 18//10
f 13//11 19//11 20//11
f 11//12 17//12 18//12
f 18//13 23//13 24//13
f 19//14 24//14 25//14
f 17//15 22//15 23//15
f 20//16 25//16 26//16
f 25//17 24//17 30//17
f 22//18 28//18 29//18
f 25//19 31//19 32//19
f 24//20 23//20 29//20
f 30//21 35//21 36//21
f 28//22 33//22 34//22
f 31//23 36//23 37//23
f 29//24 34//24 35//24
f 35//25 40//25 41//25
f 33//26 38//26 39//26
f 36//27 41//27 42//27
f 34//28 39//28 40//28
f 1//29 16//29 6//29
f 27//30 5//30 10//30
f 6//31 16//31 11//31
f 27//32 10//32 15//32
f 11//33 16//33 17//33
f 27//34 15//34 21//34
f 17//35 16//35 22//35
f 27//36 21//36 26//36
f 22//37 16//37 28//37
f 27//38 26//38 32//38
f 27//39 32//39 37//39
f 28//40 16//40 33//40
f 27//41 37//41 42//41
f 33//42 16//42 38//42
f 27//43 42//43 5//43
f 41//44 40//44 3//44
f 39//45 38//45 1//45
f 41//46 4//46 5//46
f 40//47 39//47 2//47
f 38//48 16//48 1//48
f 2//1 1//1 7//1
f 5//2 4//2 10//2
f 8//3 3//3 7//3
f 4//4 3//4 9//4
f 10//5 9//5 15//5
f 8//6 7//6 13//6
f 9//7 8//7 14//7
f 7//8 6//8 12//8
f 15//9 14//9 21//9
f 19//10 13//10 18//10
f 14//11 13//11 20//11
f 12//12 11//12 18//12
f 19//13 18//13 24//13
f 20//14 19//14 25//14
f 18//15 17//15 23//15
f 21//16 20//16 26//16
f 31//17 25//17 30//17
f 23//18 22//18 29//18
f 26//19 25//19 32//19
f 30//20 24//20 29//20
f 31//21 30//21 36//21
f 29//22 28//22 34//22
f 32//23 31//23 37//23
f 30//24 29//24 35//24
f 36//25 35//25 41//25
f 34//26 33//26 39//26
f 37//27 36//27 42//27
f 35//28 34//28 40//28
f 4//44 41//44 3//44
f 2//45 39//45 1//45
f 42//46 41//46 5//46
f 3//47 40//47 2//47
o frontLeftWheelMesh_Cylinder.006
v -0.083619 0.000000 -0.456126
v 0.083619 0.000000 -0.456126
v -0.083619 -0.174552 -0.421406
v 0.083619 -0.174552 -0.421406
v -0.083619 -0.322530 -0.322530
v 0.083619 -0.322530 -0.322530
v -0.083619 -0.421406 -0.174552
v 0.083619 -0.421406 -0.174552
v -0.083619 -0.456126 0.000000
v 0.083619 -0.456126 0.000000
v -0.083619 -0.421406 0.174552
v 0.083619 -0.421406 0.174552
v -0.083619 -0.322530 0.322530
v 0.083619 -0.322530 0.322530
v -0.083619 -0.174552 0.421406
v 0.083619 -0.174552 0.421406
v -0.083619 -0.000000 0.456126
v 0.083619 -0.000000 0.456126
v -0.083619 0.174552 0.421406
v 0.083619 0.174552 0.421406
v -0.083619 0.322530 0.322530
v 0.083619 0.322530 0.322530
v -0.083619 0.421406 0.174552
v 0.083619 0.421406 0.174552
v -0.083619 0.456126 -0.000000
v 0.083619 0.456126 -0.000000
v -0.083619 0.421406 -0.174552
v 0.083619 0.421406 -0.174552
v -0.083619 0.322530 -0.322530
v 0.083619 0.322530 -0.322530
v -0.083619 0.174552 -0.421406
v 0.083619 0.174552 -0.421406
vn 0.000000 -0.195100 -0.980800
vn 0.000000 -0.555600 -0.831500
vn 0.000000 -0.831500 -0.555600
vn 0.000000 -0.980800 -0.195100
vn 0.000000 -0.980800 0.195100
vn 0.000000 -0.831500 0.555600
vn -0.000000 -0.555600 0.831500
vn 0.000000 -0.195100 0.980800
vn 0.000000 0.195100 0.980800
vn 0.000000 0.555600 0.831500
vn 0.000000 0.831500 0.555600
vn 0.000000 0.980800 0.195100
vn 0.000000 0.980800 -0.195100
vn 0.000000 0.831500 -0.555600
vn 1.000000 0.000000 0.000000
vn 0.000000 0.195100 -0.980800
vn 0.000000 0.555600 -0.831500
vn -1.000000 -0.000000 0.000000
s off
f 43//49 44//49 46//49
f 46//50 48//50 47//50
f 48//51 50//51 49//51
f 49//52 50//52 52//52
f 52//53 54//53 53//53
f 54//54 56//54 55//54
f 56//55 58//55 57//55
f 57//56 58//56 60//56
f 59//57 60//57 62//57
f 62//58 64//58 63//58
f 64//59 66//59 65//59
f 66//60 68//60 67//60
f 67//61 68//61 70//61
f 70//62 72//62 71//62
f 64//63 56//63 48//63
f 73//64 74//64 44//64
f 72//65 74//65 73//65
f 57//66 65//66 49//66
f 45//49 43//49 46//49
f 45//50 46//50 47//50
f 47//51 48//51 49//51
f 51//52 49//52 52//52
f 51//53 52//53 53//53
f 53//54 54//54 55//54
f 55//55 56//55 57//55
f 59//56 57//56 60//56
f 61//57 59//57 62//57
f 61//58 62//58 63//58
f 63//59 64//59 65//59
f 65//60 66//60 67//60
f 69//61 67//61 70//61
f 69//62 70//62 71//62
f 48//63 46//63 44//63
f 44//63 74//63 72//63
f 72//63 70//63 68//63
f 68//63 66//63 64//63
f 64//63 62//63 60//63
f 60//63 58//63 56//63
f 56//63 54//63 52//63
f 52//63 50//63 48//63
f 48//63 44//63 72//63
f 72//63 68//63 64//63
f 64//63 60//63 56//63
f 56//63 52//63 48//63
f 48//63 72//63 64//63
f 43//64 73//64 44//64
f 71//65 72//65 73//65
f 73//66 43//66 45//66
f 45//66 47//66 49//66
f 49//66 51//66 53//66
f 53//66 55//66 49//66
f 57//66 59//66 61//66
f 61//66 63//66 57//66
f 65//66 67//66 73//66
f 69//66 71//66 73//66
f 73//66 45//66 49//66
f 49//66 55//66 57//66
f 57//66 63//66 65//66
f 67//66 69//66 73//66
f 73//66 49//66 65//66
o frontLeftWheelMounterPoint_Cube.021
v 0.419116 -0.066012 0.066012
v 0.419116 0.066012 0.066012
v 0.419116 -0.066012 -0.066012
v 0.419116 0.066012 -0.066012
v 0.551139 -0.066012 0.066012
v 0.551139 0.066012 0.066012
v 0.551139 -0.066012 -0.066012
v 0.551139 0.066012 -0.066012
vn -1.000000 0.000000 0.000000
vn 0.000000 0.000000 -1.000000
vn 1.000000 0.000000 0.000000
vn 0.000000 0.000000 1.000000
vn 0.000000 -1.000000 0.000000
vn 0.000000 1.000000 0.000000
s off
f 78//67 77//67 75//67
f 82//68 81//68 77//68
f 80//69 79//69 81//69
f 76//70 75//70 79//70
f 77//71 81//71 79//71
f 82//72 78//72 76//72
f 76//67 78//67 75//67
f 78//68 82//68 77//68
f 82//69 80//69 81//69
f 80//70 76//70 79//70
f 75//71 77//71 79//71
f 80//72 82//72 76//72
