# Blender v2.76 (sub 0) OBJ File: 'tank_test.blend'
# www.blender.org
o gunPhysiMesh_Cube.002
v 0.080848 -0.082045 -0.910286
v 0.080848 0.082045 -0.910286
v 0.080848 -0.082045 0.910286
v 0.080848 0.082045 0.910286
v -0.080848 -0.082045 -0.910286
v -0.080848 0.082045 -0.910286
v -0.080848 -0.082045 0.910286
v -0.080848 0.082045 0.910286
vn 1.000000 0.000000 0.000000
vn -0.000000 0.000000 1.000000
vn -1.000000 0.000000 -0.000000
vn 0.000000 0.000000 -1.000000
vn 0.000000 -1.000000 -0.000000
vn 0.000000 1.000000 0.000000
s off
f 4//1 3//1 1//1
f 8//2 7//2 3//2
f 6//3 5//3 7//3
f 2//4 1//4 5//4
f 3//5 7//5 5//5
f 8//6 4//6 2//6
f 2//1 4//1 1//1
f 4//2 8//2 3//2
f 8//3 6//3 7//3
f 6//4 2//4 5//4
f 1//5 3//5 5//5
f 6//6 8//6 2//6
o gunMounterPoint_Cube.007
v 0.069340 -0.069340 0.852687
v 0.069340 0.069340 0.852687
v 0.069340 -0.069340 0.991368
v 0.069340 0.069340 0.991368
v -0.069340 -0.069340 0.852687
v -0.069340 0.069340 0.852687
v -0.069340 -0.069340 0.991368
v -0.069340 0.069340 0.991368
vn 1.000000 0.000000 0.000000
vn 0.000000 0.000000 1.000000
vn -1.000000 0.000000 -0.000000
vn 0.000000 0.000000 -1.000000
vn 0.000000 -1.000000 0.000000
vn 0.000000 1.000000 -0.000000
s off
f 12//7 11//7 9//7
f 16//8 15//8 11//8
f 14//9 13//9 15//9
f 10//10 9//10 13//10
f 11//11 15//11 13//11
f 16//12 12//12 10//12
f 10//7 12//7 9//7
f 12//8 16//8 11//8
f 16//9 14//9 15//9
f 14//10 10//10 13//10
f 9//11 11//11 13//11
f 14//12 16//12 10//12
o gunMesh_Cube.003
v 0.027347 -0.066022 -0.654674
v 0.050531 -0.050531 -0.654674
v 0.066022 -0.027347 -0.654674
v 0.066022 0.027347 -0.654674
v 0.031105 -0.075093 -0.695147
v 0.057474 -0.057474 -0.695147
v 0.075094 -0.031105 -0.695147
v -0.050531 0.050531 -0.654674
v 0.071461 0.000000 -0.654674
v 0.000000 -0.071461 -0.654674
v 0.000000 -0.081280 -0.695147
v 0.031105 -0.075093 -0.908962
v 0.057474 -0.057474 -0.908962
v 0.081281 0.000000 -0.695147
v 0.075094 -0.031105 -0.908962
v 0.075094 -0.031105 -0.843520
v 0.073526 -0.033450 -0.842421
v 0.066675 -0.043704 -0.831664
v 0.064269 -0.047305 -0.818975
v 0.066675 -0.043704 -0.806286
v 0.073526 -0.033450 -0.795528
v 0.075094 -0.031105 -0.794430
v 0.000000 0.071461 -0.654674
v -0.066021 -0.027347 -0.654674
v 0.075094 0.031105 -0.695147
v -0.027347 -0.066022 -0.654674
v -0.031104 -0.075093 -0.695147
v 0.000000 -0.081280 -0.908962
v 0.019413 -0.046867 -0.908962
v 0.035871 -0.035870 -0.908962
v 0.077680 -0.018103 -0.788340
v 0.081281 -0.000000 -0.785816
v 0.081281 0.000000 -0.785816
v 0.046867 -0.019413 -0.908962
v 0.081281 0.000000 -0.908962
v 0.081281 0.000000 -0.852133
v 0.081281 -0.000000 -0.852133
v 0.077680 -0.018103 -0.849609
v 0.050531 0.050531 -0.654674
v -0.027347 0.066022 -0.654674
v -0.071461 0.000000 -0.654674
v 0.057474 0.057474 -0.695147
v 0.077680 0.018103 -0.788340
v 0.075094 0.031105 -0.794430
v -0.050531 -0.050531 -0.654674
v -0.057474 -0.057474 -0.695147
v -0.031104 -0.075093 -0.908962
v 0.000000 -0.050728 -0.908962
v 0.019413 -0.046867 -0.820520
v 0.024146 -0.043704 -0.831664
v 0.035871 -0.035870 -0.839882
v 0.050729 0.000000 -0.908962
v 0.037488 -0.033450 -0.842421
v 0.046867 -0.019413 -0.848996
v 0.075094 0.031105 -0.908962
v 0.075094 0.031105 -0.843520
v 0.077680 0.018103 -0.849609
v 0.027347 0.066022 -0.654674
v 0.000000 0.081281 -0.695147
v -0.031104 0.075093 -0.695147
v -0.057474 0.057474 -0.695147
v -0.066021 0.027347 -0.654674
v -0.081280 0.000000 -0.695147
v -0.075093 -0.031105 -0.695147
v 0.031105 0.075093 -0.695147
v 0.073527 0.033450 -0.795528
v 0.066675 0.043704 -0.806286
v 0.064269 0.047305 -0.818975
v 0.066675 0.043704 -0.831664
v 0.073527 0.033450 -0.842421
v 0.057474 0.057474 -0.908962
v -0.057474 -0.057474 -0.908962
v -0.019413 -0.046867 -0.908962
v 0.000000 -0.050728 -0.682861
v 0.019413 -0.046867 -0.682861
v 0.019413 -0.046867 -0.817429
v 0.017208 -0.047305 -0.818975
v 0.046867 0.019413 -0.908962
v 0.047128 -0.018103 -0.849609
v 0.050729 -0.000000 -0.852133
v 0.050729 0.000000 -0.852133
v 0.000000 0.081281 -0.908962
v -0.031104 0.075094 -0.908962
v -0.075093 0.031105 -0.695147
v -0.057474 0.057474 -0.908962
v -0.081280 0.000000 -0.785816
v -0.081280 -0.000000 -0.785816
v -0.077679 -0.018103 -0.788340
v -0.075093 -0.031105 -0.794430
v 0.031105 0.075094 -0.908962
v 0.035871 0.035870 -0.908962
v -0.073526 -0.033450 -0.795528
v -0.066674 -0.043704 -0.806286
v -0.064268 -0.047305 -0.818975
v -0.066674 -0.043704 -0.831664
v -0.073526 -0.033450 -0.842421
v -0.075093 -0.031105 -0.843520
v -0.075093 -0.031105 -0.908962
v -0.035870 -0.035870 -0.908962
v -0.019413 -0.046867 -0.820520
v -0.017208 -0.047305 -0.818975
v -0.019413 -0.046867 -0.817429
v -0.019413 -0.046867 -0.682861
v 0.035871 -0.035870 -0.682861
v 0.035871 -0.035870 -0.798067
v 0.024146 -0.043704 -0.806286
v 0.047128 0.018103 -0.849609
v 0.046867 0.019413 -0.848996
v 0.000000 0.050728 -0.908962
v -0.019413 0.046867 -0.908962
v -0.075093 0.031105 -0.908962
v -0.075093 0.031105 -0.843520
v -0.073526 0.033450 -0.842421
v -0.066674 0.043704 -0.831664
v -0.064268 0.047305 -0.818975
v -0.066674 0.043704 -0.806286
v -0.073526 0.033450 -0.795528
v -0.075093 0.031105 -0.794430
v -0.035870 0.035870 -0.908962
v -0.077679 0.018103 -0.788340
v 0.019413 0.046867 -0.908962
v 0.037488 0.033450 -0.842421
v 0.035871 0.035870 -0.839882
v -0.081280 0.000000 -0.852133
v -0.081280 0.000000 -0.908962
v -0.077679 -0.018103 -0.849609
v -0.081280 -0.000000 -0.852133
v -0.046867 -0.019413 -0.908962
v -0.035870 -0.035870 -0.839882
v -0.024145 -0.043704 -0.831664
v -0.035870 -0.035870 -0.798067
v -0.035870 -0.035870 -0.682861
v -0.024145 -0.043704 -0.806286
v 0.046867 -0.019413 -0.682861
v 0.046867 -0.019413 -0.788954
v 0.037488 -0.033450 -0.795528
v 0.000000 0.050728 -0.682861
v -0.019413 0.046867 -0.682861
v -0.019413 0.046867 -0.817430
v -0.017209 0.047305 -0.818975
v -0.019413 0.046867 -0.820519
v -0.046867 0.019413 -0.908962
v -0.077679 0.018103 -0.849609
v -0.024146 0.043704 -0.831664
v -0.035870 0.035870 -0.839882
v 0.024146 0.043704 -0.831664
v 0.019413 0.046867 -0.820519
v -0.050728 0.000000 -0.908962
v -0.046867 -0.019413 -0.848996
v -0.037487 -0.033450 -0.842421
v -0.046867 -0.019413 -0.788954
v -0.046867 -0.019413 -0.682861
v -0.037487 -0.033450 -0.795528
v 0.050729 0.000000 -0.682861
v 0.050729 0.000000 -0.785816
v 0.050729 -0.000000 -0.785816
v 0.047128 -0.018103 -0.788340
v 0.017210 0.047305 -0.818975
v 0.019413 0.046867 -0.817430
v 0.019413 0.046867 -0.682861
v -0.035870 0.035870 -0.682861
v -0.035870 0.035870 -0.798067
v -0.024146 0.043704 -0.806286
v -0.037487 0.033450 -0.842421
v -0.046867 0.019413 -0.848996
v -0.050728 0.000000 -0.852133
v -0.050728 -0.000000 -0.852133
v -0.047127 -0.018103 -0.849609
v -0.050728 0.000000 -0.785816
v -0.050728 0.000000 -0.682861
v -0.047127 -0.018103 -0.788340
v -0.050728 -0.000000 -0.785816
v 0.046867 0.019413 -0.682861
v 0.046867 0.019413 -0.788954
v 0.047128 0.018103 -0.788340
v 0.035871 0.035870 -0.798067
v 0.035871 0.035870 -0.682861
v 0.024146 0.043704 -0.806286
v -0.046867 0.019413 -0.682861
v -0.046867 0.019413 -0.788954
v -0.037487 0.033450 -0.795528
v -0.047127 0.018103 -0.849609
v -0.047127 0.018103 -0.788340
v 0.037488 0.033450 -0.795528
v 0.066746 -0.000000 0.409141
v 0.061665 -0.025543 0.409141
v 0.061665 -0.025543 -0.664172
v 0.066746 0.000000 -0.664172
v 0.061665 0.025542 0.409141
v 0.061665 0.025543 -0.664172
v 0.047196 -0.047197 0.409141
v 0.047197 -0.047196 -0.664172
v 0.047196 0.047196 0.409141
v 0.047197 0.047197 -0.664172
v 0.025542 -0.061665 0.409141
v 0.025543 -0.061665 -0.664172
v 0.025542 0.061665 0.409141
v 0.025543 0.061665 -0.664172
v -0.000000 -0.066746 0.409141
v 0.000000 -0.066746 -0.664172
v -0.000000 0.066746 0.409141
v 0.000000 0.066746 -0.664172
v -0.025543 -0.061665 0.409141
v -0.025542 -0.061665 -0.664172
v -0.025543 0.061665 0.409141
v -0.025542 0.061665 -0.664172
v -0.047197 -0.047197 0.409141
v -0.047196 -0.047196 -0.664172
v -0.047197 0.047196 0.409141
v -0.047196 0.047197 -0.664172
v -0.061665 -0.025543 0.409141
v -0.061665 -0.025543 -0.664172
v -0.061665 0.025543 0.409141
v -0.061665 0.025543 -0.664172
v -0.066746 -0.000000 0.409141
v -0.066746 0.000000 -0.664172
v -0.000000 0.092527 0.398466
v -0.000000 0.092527 0.922027
v 0.035409 0.085484 0.922027
v 0.035409 0.085484 0.398466
v 0.085484 0.035409 0.398466
v -0.035409 0.085484 0.398466
v -0.035409 0.085484 0.922027
v 0.065427 0.065427 0.922027
v 0.065427 0.065427 0.398466
v -0.065427 0.065427 0.398466
v -0.065427 0.065427 0.922027
v 0.085484 0.035409 0.922027
v -0.065427 -0.065427 0.398466
v -0.085484 0.035409 0.398466
v -0.085484 0.035409 0.922027
v 0.092527 -0.000000 0.922027
v 0.092527 -0.000000 0.398466
v 0.035409 -0.085484 0.398466
v -0.092528 -0.000000 0.398466
v -0.092528 -0.000000 0.922027
v 0.085484 -0.035409 0.398466
v 0.085484 -0.035409 0.922027
v -0.000000 -0.092527 0.398466
v -0.085484 -0.035409 0.398466
v -0.085484 -0.035409 0.922027
v 0.065427 -0.065427 0.922027
v 0.065427 -0.065427 0.398466
v 0.035409 -0.085484 0.922027
v -0.000000 -0.092527 0.922027
v -0.035409 -0.085484 0.398466
v -0.065427 -0.065427 0.922027
v -0.035409 -0.085484 0.922027
vn 0.000000 -0.000000 1.000000
vn 0.540500 -0.808900 0.231500
vn 0.808900 -0.540500 0.231500
vn 0.189800 -0.954100 0.231500
vn 0.555600 -0.831500 -0.000000
vn 0.954100 -0.189800 0.231500
vn 0.831500 -0.555600 0.000000
vn 0.954100 0.189800 0.231500
vn -0.189800 -0.954100 0.231500
vn 0.195100 -0.980800 -0.000000
vn -0.000000 -0.000000 -1.000000
vn 0.980800 -0.195100 0.000000
vn 0.808900 0.540500 0.231500
vn 0.980800 0.195100 0.000000
vn -0.540500 -0.808900 0.231500
vn -0.195100 -0.980800 -0.000000
vn -0.555600 0.831500 0.000000
vn -0.831500 0.555600 0.000000
vn -0.189800 0.954100 0.231500
vn -0.540500 0.808900 0.231500
vn -0.954100 -0.189800 0.231500
vn 0.540500 0.808900 0.231500
vn 0.831500 0.555600 0.000000
vn -0.808900 -0.540500 0.231500
vn -0.555600 -0.831500 -0.000000
vn -0.195100 0.980800 0.000000
vn -0.980800 0.195100 -0.000000
vn 0.189800 0.954100 0.231500
vn -0.808900 0.540500 0.231500
vn -0.954100 0.189800 0.231500
vn -0.980800 -0.195100 -0.000000
vn 0.555600 0.831500 0.000000
vn -0.831500 -0.555600 -0.000000
vn 0.195100 0.980800 0.000000
vn -0.000000 -0.962000 0.273000
vn -0.000000 -0.962000 -0.273000
vn 0.000000 -0.723800 0.690000
vn -0.000000 -0.723800 -0.690000
vn 0.000000 -0.424100 0.905600
vn 0.000000 -0.424100 -0.905600
vn 0.000000 -0.138100 -0.990400
vn 0.000000 0.138100 0.990400
vn 0.000000 0.138100 -0.990400
vn 0.000000 0.424100 0.905600
vn 0.000000 0.424100 -0.905600
vn -0.000000 0.723800 0.690000
vn -0.000000 0.723800 -0.690000
vn -0.000000 0.962000 0.273000
vn -0.000000 0.962000 -0.273000
vn 0.000000 -0.424200 0.905600
vn 0.000000 -0.138100 0.990400
vn 0.000000 0.424200 -0.905600
vn 0.970100 -0.242500 -0.012600
vn 0.996700 0.046700 -0.066200
vn -0.986400 0.164400 0.001300
vn -0.975600 -0.219700 -0.000000
vn -0.994500 -0.104400 -0.000000
vn -0.999200 -0.031200 0.023400
vn 0.985500 0.169800 0.000000
vn 0.970500 0.241300 0.000000
vn 0.000000 -0.424200 -0.905600
vn 0.000000 0.424200 0.905600
vn -0.895700 -0.014000 0.444400
vn 0.971000 -0.021000 -0.238000
s off
f 56//13 40//13 17//13
f 18//14 17//14 21//14
f 19//15 18//15 22//15
f 17//16 26//16 27//16
f 22//17 21//17 28//17
f 19//18 23//18 30//18
f 22//19 29//19 35//19
f 20//20 25//20 30//20
f 42//21 43//21 27//21
f 21//22 27//22 44//22
f 28//23 45//23 46//23
f 23//24 47//24 48//24
f 31//23 29//23 46//23
f 51//24 52//24 54//24
f 55//25 20//25 41//25
f 30//26 59//26 41//26
f 42//27 61//27 62//27
f 43//28 63//28 44//28
f 28//23 44//23 64//23
f 45//29 66//29 67//29
f 51//23 31//23 50//23
f 46//30 69//30 70//30
f 71//26 72//26 73//26
f 39//31 75//31 76//31
f 56//32 76//32 77//32
f 57//33 79//33 80//33
f 55//34 58//34 81//34
f 58//35 84//35 87//35
f 40//36 80//36 62//36
f 43//37 62//37 88//37
f 44//23 63//23 89//23
f 90//38 92//38 93//38
f 51//23 68//23 94//23
f 50//39 95//39 96//39
f 74//40 81//40 75//40
f 75//38 98//38 99//38
f 78//41 24//41 77//41
f 76//29 99//29 101//29
f 78//42 100//42 79//42
f 79//43 103//43 104//43
f 58//44 87//44 106//44
f 71//23 94//23 107//23
f 62//45 110//45 88//45
f 88//23 115//23 89//23
f 118//46 119//46 90//46
f 91//29 121//29 122//29
f 97//43 123//43 94//43
f 81//46 106//46 98//46
f 98//23 125//23 126//23
f 77//30 101//30 131//30
f 101//23 99//23 126//23
f 100//39 136//39 79//39
f 87//23 107//23 137//23
f 124//45 138//45 107//45
f 114//43 113//43 142//43
f 88//23 114//23 144//23
f 145//44 146//44 89//44
f 119//44 118//44 149//44
f 120//30 151//30 152//30
f 98//23 106//23 137//23
f 153//22 155//22 156//22
f 101//23 135//23 158//23
f 141//39 140//39 159//39
f 126//17 160//17 161//17
f 139//37 162//37 137//37
f 114//23 141//23 164//23
f 165//35 166//35 115//35
f 148//35 147//35 169//35
f 150//39 171//39 173//39
f 175//28 176//28 153//28
f 154//17 178//17 179//17
f 127//23 158//23 164//23
f 135//19 180//19 181//19
f 164//26 183//26 144//26
f 168//26 167//26 187//26
f 189//43 190//43 191//43
f 176//37 175//37 194//37
f 177//19 196//19 197//19
f 158//24 198//24 182//24
f 195//24 185//24 199//24
f 193//45 192//45 200//45
f 160//47 157//47 131//47
f 131//48 155//48 179//48
f 180//49 161//49 130//49
f 132//50 178//50 197//50
f 159//51 198//51 181//51
f 133//52 197//52 196//52
f 140//13 183//13 182//13
f 136//53 199//53 185//53
f 142//54 184//54 183//54
f 104//55 103//55 188//55
f 112//56 166//56 165//56
f 104//57 187//57 167//57
f 111//58 145//58 166//58
f 169//59 147//59 109//59
f 110//60 116//60 146//60
f 149//61 118//61 110//61
f 162//47 85//47 84//47
f 175//48 84//48 194//48
f 138//49 86//49 85//49
f 192//50 83//50 200//50
f 124//62 72//62 86//62
f 190//52 60//52 59//52
f 97//63 53//63 73//63
f 171//53 59//53 48//53
f 96//54 95//54 54//54
f 172//55 48//55 47//55
f 70//56 32//56 54//56
f 151//64 38//64 37//64
f 67//58 34//58 69//58
f 152//59 37//59 36//59
f 65//60 35//60 66//60
f 122//61 36//61 35//61
f 202//24 203//24 204//24
f 201//26 204//26 206//26
f 207//19 208//19 203//19
f 205//35 206//35 210//35
f 211//17 212//17 208//17
f 209//44 210//44 214//44
f 215//22 216//22 212//22
f 213//46 214//46 218//46
f 219//28 220//28 216//28
f 217//38 218//38 222//38
f 223//37 224//37 220//37
f 221//29 222//29 226//29
f 227//45 228//45 224//45
f 225//30 226//30 230//30
f 231//43 232//43 228//43
f 229//39 230//39 232//39
f 233//46 234//46 235//46
f 250//23 256//23 237//23
f 239//38 234//38 233//38
f 235//44 240//44 241//44
f 243//29 239//29 238//29
f 240//35 244//35 237//35
f 247//30 243//30 242//30
f 244//26 248//26 249//26
f 251//39 252//39 247//39
f 248//24 254//24 253//24
f 257//43 252//43 251//43
f 254//19 258//19 259//19
f 250//22 260//22 261//22
f 263//45 257//45 256//45
f 259//17 258//17 260//17
f 261//28 264//28 262//28
f 264//37 263//37 245//37
f 17//13 18//13 19//13
f 19//13 25//13 20//13
f 20//13 55//13 74//13
f 74//13 39//13 20//13
f 56//13 24//13 40//13
f 78//13 57//13 40//13
f 40//13 61//13 17//13
f 42//13 26//13 17//13
f 17//13 19//13 20//13
f 20//13 39//13 56//13
f 24//13 78//13 40//13
f 61//13 42//13 17//13
f 17//13 20//13 56//13
f 22//14 18//14 21//14
f 23//15 19//15 22//15
f 21//16 17//16 27//16
f 29//17 22//17 28//17
f 25//18 19//18 30//18
f 38//19 23//19 22//19
f 29//19 31//19 33//19
f 37//19 38//19 22//19
f 31//19 32//19 33//19
f 36//19 37//19 22//19
f 29//19 33//19 34//19
f 35//19 36//19 22//19
f 29//19 34//19 35//19
f 41//20 20//20 30//20
f 26//21 42//21 27//21
f 28//22 21//22 44//22
f 29//23 28//23 46//23
f 49//24 30//24 23//24
f 23//24 38//24 47//24
f 48//65 49//65 23//65
f 50//23 31//23 46//23
f 54//24 32//24 31//24
f 31//24 51//24 54//24
f 52//66 53//66 54//66
f 58//25 55//25 41//25
f 60//26 41//26 59//26
f 30//26 49//26 59//26
f 43//27 42//27 62//27
f 27//28 43//28 44//28
f 45//23 28//23 64//23
f 67//29 46//29 45//29
f 45//29 65//29 66//29
f 68//23 51//23 50//23
f 70//30 50//30 46//30
f 46//30 67//30 69//30
f 73//26 52//26 51//26
f 51//26 71//26 73//26
f 56//31 39//31 76//31
f 24//32 56//32 77//32
f 40//33 57//33 80//33
f 74//34 55//34 81//34
f 58//35 41//35 60//35
f 72//35 71//35 86//35
f 58//35 60//35 82//35
f 86//35 71//35 87//35
f 58//35 82//35 83//35
f 85//35 86//35 87//35
f 58//35 83//35 84//35
f 84//35 85//35 87//35
f 61//36 40//36 62//36
f 63//37 43//37 88//37
f 64//23 44//23 89//23
f 65//38 45//38 64//38
f 64//38 90//38 93//38
f 91//38 92//38 90//38
f 93//38 65//38 64//38
f 71//23 51//23 94//23
f 97//39 68//39 50//39
f 50//39 70//39 95//39
f 96//67 97//67 50//67
f 39//40 74//40 75//40
f 76//38 75//38 99//38
f 100//41 78//41 77//41
f 77//29 76//29 101//29
f 57//42 78//42 79//42
f 105//43 80//43 104//43
f 79//68 102//68 103//68
f 104//43 80//43 79//43
f 81//44 58//44 106//44
f 87//23 71//23 107//23
f 62//45 80//45 105//45
f 113//45 114//45 112//45
f 62//45 105//45 108//45
f 112//45 114//45 88//45
f 62//45 108//45 109//45
f 111//45 112//45 88//45
f 62//45 109//45 110//45
f 110//45 111//45 88//45
f 63//23 88//23 89//23
f 90//46 64//46 117//46
f 89//46 116//46 64//46
f 117//46 118//46 90//46
f 64//46 116//46 117//46
f 122//29 92//29 91//29
f 91//29 120//29 121//29
f 124//43 94//43 123//43
f 68//43 97//43 94//43
f 75//46 81//46 98//46
f 99//23 98//23 126//23
f 134//30 100//30 77//30
f 101//30 127//30 129//30
f 133//30 134//30 77//30
f 127//30 128//30 129//30
f 132//30 133//30 77//30
f 101//30 129//30 130//30
f 131//30 132//30 77//30
f 101//30 130//30 131//30
f 135//23 101//23 126//23
f 102//39 79//39 136//39
f 100//39 134//39 136//39
f 106//23 87//23 137//23
f 139//45 107//45 138//45
f 94//45 124//45 107//45
f 143//69 140//69 141//69
f 141//43 114//43 142//43
f 142//43 143//43 141//43
f 115//23 88//23 144//23
f 116//44 89//44 146//44
f 115//44 145//44 89//44
f 149//44 147//44 119//44
f 148//44 119//44 147//44
f 152//30 121//30 120//30
f 120//30 150//30 151//30
f 125//23 98//23 137//23
f 157//22 126//22 125//22
f 125//22 153//22 156//22
f 154//22 155//22 153//22
f 156//22 157//22 125//22
f 127//23 101//23 158//23
f 159//39 128//39 127//39
f 127//39 141//39 159//39
f 161//17 135//17 126//17
f 126//17 157//17 160//17
f 163//37 137//37 162//37
f 107//37 139//37 137//37
f 144//23 114//23 164//23
f 145//35 115//35 166//35
f 144//35 165//35 115//35
f 169//35 167//35 148//35
f 168//35 148//35 167//35
f 173//39 151//39 150//39
f 150//39 170//39 171//39
f 171//70 172//70 173//70
f 153//28 125//28 174//28
f 137//28 163//28 125//28
f 174//28 175//28 153//28
f 125//28 163//28 174//28
f 179//17 155//17 154//17
f 154//17 177//17 178//17
f 141//23 127//23 164//23
f 181//19 158//19 135//19
f 135//19 161//19 180//19
f 165//26 144//26 184//26
f 164//71 182//71 183//71
f 184//26 144//26 183//26
f 188//72 185//72 186//72
f 186//26 168//26 188//26
f 187//26 188//26 168//26
f 191//43 171//43 189//43
f 170//43 189//43 171//43
f 194//37 192//37 176//37
f 193//37 176//37 192//37
f 197//19 178//19 177//19
f 177//19 195//19 196//19
f 182//24 164//24 158//24
f 158//24 181//24 198//24
f 199//24 196//24 195//24
f 195//24 186//24 185//24
f 200//45 190//45 193//45
f 189//45 193//45 190//45
f 156//47 131//47 157//47
f 130//47 160//47 131//47
f 179//48 132//48 131//48
f 131//48 156//48 155//48
f 160//49 130//49 161//49
f 129//49 180//49 130//49
f 197//50 133//50 132//50
f 132//50 179//50 178//50
f 180//51 129//51 181//51
f 128//51 159//51 181//51
f 181//62 129//62 128//62
f 199//52 136//52 196//52
f 134//73 133//73 196//73
f 196//52 136//52 134//52
f 198//63 159//63 182//63
f 140//13 143//13 183//13
f 182//63 159//63 140//63
f 188//23 103//23 102//23
f 102//53 136//53 185//53
f 185//23 188//23 102//23
f 143//54 142//54 183//54
f 187//55 104//55 188//55
f 184//56 142//56 165//56
f 113//74 112//74 165//74
f 165//56 142//56 113//56
f 169//57 108//57 167//57
f 105//57 104//57 167//57
f 167//64 108//64 105//64
f 166//58 112//58 111//58
f 111//58 146//58 145//58
f 149//59 109//59 147//59
f 108//59 169//59 109//59
f 146//60 111//60 110//60
f 110//60 117//60 116//60
f 117//61 110//61 118//61
f 109//61 149//61 110//61
f 84//47 174//47 163//47
f 163//47 162//47 84//47
f 83//48 194//48 84//48
f 175//48 174//48 84//48
f 85//49 162//49 139//49
f 139//49 138//49 85//49
f 82//50 200//50 83//50
f 192//50 194//50 83//50
f 86//51 138//51 124//51
f 124//51 123//51 73//51
f 73//51 72//51 124//51
f 59//52 191//52 190//52
f 190//52 200//52 82//52
f 82//73 60//73 190//73
f 73//63 123//63 97//63
f 97//13 96//13 53//13
f 53//75 52//75 73//75
f 48//23 172//23 171//23
f 171//53 191//53 59//53
f 59//76 49//76 48//76
f 53//54 96//54 54//54
f 173//55 172//55 47//55
f 54//56 95//56 70//56
f 70//56 69//56 33//56
f 33//74 32//74 70//74
f 37//57 152//57 151//57
f 151//57 173//57 47//57
f 47//57 38//57 151//57
f 33//58 69//58 34//58
f 67//58 66//58 34//58
f 36//59 122//59 121//59
f 121//59 152//59 36//59
f 34//60 66//60 35//60
f 65//60 93//60 35//60
f 35//61 93//61 92//61
f 92//61 122//61 35//61
f 201//24 202//24 204//24
f 205//26 201//26 206//26
f 202//19 207//19 203//19
f 209//35 205//35 210//35
f 207//17 211//17 208//17
f 213//44 209//44 214//44
f 211//22 215//22 212//22
f 217//46 213//46 218//46
f 215//28 219//28 216//28
f 221//38 217//38 222//38
f 219//37 223//37 220//37
f 225//29 221//29 226//29
f 223//45 227//45 224//45
f 229//30 225//30 230//30
f 227//43 231//43 228//43
f 231//39 229//39 232//39
f 236//46 233//46 235//46
f 238//23 233//23 237//23
f 236//23 241//23 237//23
f 237//23 249//23 253//23
f 253//23 259//23 250//23
f 250//23 255//23 262//23
f 262//23 245//23 250//23
f 256//23 251//23 246//23
f 246//23 242//23 256//23
f 233//23 236//23 237//23
f 237//23 253//23 250//23
f 250//23 245//23 256//23
f 256//23 242//23 238//23
f 238//23 237//23 256//23
f 238//38 239//38 233//38
f 236//44 235//44 241//44
f 242//29 243//29 238//29
f 241//35 240//35 237//35
f 246//30 247//30 242//30
f 237//26 244//26 249//26
f 246//39 251//39 247//39
f 249//24 248//24 253//24
f 256//43 257//43 251//43
f 253//19 254//19 259//19
f 255//22 250//22 261//22
f 245//45 263//45 256//45
f 250//17 259//17 260//17
f 255//28 261//28 262//28
f 262//37 264//37 245//37
