# Blender v2.76 (sub 0) OBJ File: 'tank_test.blend'
# www.blender.org
o turretPhysiMesh_Cube.001
v 0.476745 -0.476745 -0.476745
v 0.476745 0.476745 -0.476745
v 0.476745 -0.476745 0.476745
v 0.476745 0.476745 0.476745
v -0.476745 -0.476745 -0.476745
v -0.476745 0.476745 -0.476745
v -0.476745 -0.476745 0.476745
v -0.476745 0.476745 0.476745
vn 1.000000 0.000000 0.000000
vn -0.000000 0.000000 1.000000
vn -1.000000 0.000000 -0.000000
vn 0.000000 0.000000 -1.000000
vn 0.000000 -1.000000 -0.000000
vn 0.000000 1.000000 0.000000
s off
f 4//1 3//1 1//1
f 8//2 7//2 3//2
f 6//3 5//3 7//3
f 2//4 1//4 5//4
f 3//5 7//5 5//5
f 8//6 4//6 2//6
f 2//1 4//1 1//1
f 4//2 8//2 3//2
f 8//3 6//3 7//3
f 6//4 2//4 5//4
f 1//5 3//5 5//5
f 6//6 8//6 2//6
o cameraMountPoint_Cube.023
v -0.071196 0.742767 3.537565
v -0.071196 0.885159 3.537565
v -0.071196 0.742767 3.395173
v -0.071196 0.885159 3.395173
v 0.071196 0.742767 3.537565
v 0.071196 0.885159 3.537565
v 0.071196 0.742767 3.395173
v 0.071196 0.885159 3.395173
vn -1.000000 0.000000 0.000000
vn 0.000000 0.000000 -1.000000
vn 1.000000 0.000000 0.000000
vn 0.000000 0.000000 1.000000
vn 0.000000 -1.000000 0.000000
vn 0.000000 1.000000 0.000000
s off
f 12//7 11//7 9//7
f 16//8 15//8 11//8
f 14//9 13//9 15//9
f 10//10 9//10 13//10
f 11//11 15//11 13//11
f 16//12 12//12 10//12
f 10//7 12//7 9//7
f 12//8 16//8 11//8
f 16//9 14//9 15//9
f 14//10 10//10 13//10
f 9//11 11//11 13//11
f 14//12 16//12 10//12
o turretGunMountPoint_Cube.010
v 0.069340 0.061528 -0.591454
v 0.069340 0.200208 -0.591454
v 0.069340 0.061528 -0.452773
v 0.069340 0.200208 -0.452773
v -0.069340 0.061528 -0.591454
v -0.069340 0.200208 -0.591454
v -0.069340 0.061528 -0.452773
v -0.069340 0.200208 -0.452773
vn 1.000000 0.000000 0.000000
vn 0.000000 0.000000 1.000000
vn -1.000000 0.000000 -0.000000
vn 0.000000 0.000000 -1.000000
vn 0.000000 -1.000000 0.000000
vn 0.000000 1.000000 -0.000000
s off
f 20//13 19//13 17//13
f 24//14 23//14 19//14
f 22//15 21//15 23//15
f 18//16 17//16 21//16
f 19//17 23//17 21//17
f 24//18 20//18 18//18
f 18//13 20//13 17//13
f 20//14 24//14 19//14
f 24//15 22//15 23//15
f 22//16 18//16 21//16
f 17//17 19//17 21//17
f 22//18 24//18 18//18
o turretMounterPoint_Cube.009
v 0.059896 -0.536641 -0.059896
v 0.059896 -0.416848 -0.059896
v 0.059896 -0.536641 0.059896
v 0.059896 -0.416848 0.059896
v -0.059896 -0.536641 -0.059896
v -0.059896 -0.416848 -0.059896
v -0.059896 -0.536641 0.059896
v -0.059896 -0.416848 0.059896
vn 1.000000 0.000000 0.000000
vn -0.000000 0.000000 1.000000
vn -1.000000 0.000000 -0.000000
vn 0.000000 0.000000 -1.000000
vn 0.000000 -1.000000 0.000000
vn 0.000000 1.000000 -0.000000
s off
f 28//19 27//19 25//19
f 32//20 31//20 27//20
f 30//21 29//21 31//21
f 26//22 25//22 29//22
f 27//23 31//23 29//23
f 32//24 28//24 26//24
f 26//19 28//19 25//19
f 28//20 32//20 27//20
f 32//21 30//21 31//21
f 30//22 26//22 29//22
f 25//23 27//23 29//23
f 30//24 32//24 26//24
o turretMesh_Cube.004
v 0.476745 -0.476745 -0.476745
v 0.476745 0.476745 -0.476745
v 0.476745 -0.476745 0.476745
v 0.476745 0.476745 0.476745
v -0.476745 -0.476745 -0.476745
v -0.476745 0.476745 -0.476745
v -0.476745 -0.476745 0.476745
v -0.476745 0.476745 0.476745
vn 1.000000 0.000000 0.000000
vn -0.000000 0.000000 1.000000
vn -1.000000 0.000000 -0.000000
vn 0.000000 0.000000 -1.000000
vn 0.000000 -1.000000 -0.000000
vn 0.000000 1.000000 0.000000
s off
f 36//25 35//25 33//25
f 40//26 39//26 35//26
f 38//27 37//27 39//27
f 34//28 33//28 37//28
f 35//29 39//29 37//29
f 40//30 36//30 34//30
f 34//25 36//25 33//25
f 36//26 40//26 35//26
f 40//27 38//27 39//27
f 38//28 34//28 37//28
f 33//29 35//29 37//29
f 38//30 40//30 34//30
