# Blender v2.76 (sub 0) OBJ File: ''
# www.blender.org
mtllib plane.mtl
o Cube_Cube.001
v -44.229912 -4.114030 44.229912
v -44.229912 -2.924487 44.229912
v -44.229912 -4.114030 -44.229912
v -44.229912 -2.924487 -44.229912
v 44.229912 -4.114030 44.229912
v 44.229912 -2.924487 44.229912
v 44.229912 -4.114030 -44.229912
v 44.229912 -2.924487 -44.229912
v -44.229912 -2.924487 22.114956
v -44.229912 -2.924487 0.000000
v -44.229912 -2.924487 -22.114956
v -44.229912 -4.114030 -22.114956
v -44.229912 -4.114030 0.000000
v -44.229912 -4.114030 22.114956
v 44.229912 -2.924487 -22.114956
v 44.229912 -2.924487 0.000000
v 44.229912 -2.924487 22.114956
v 44.229912 -4.114030 22.114956
v 44.229912 -4.114030 0.000000
v 44.229912 -4.114030 -22.114956
v -22.114956 -2.924487 -44.229912
v 0.000000 -2.924487 -44.229912
v 22.114956 -2.924487 -44.229912
v 22.114956 -4.114030 -44.229912
v 0.000000 -4.114030 -44.229912
v -22.114956 -4.114030 -44.229912
v 22.114956 -2.924487 44.229912
v 0.000000 -2.924487 44.229912
v -22.114956 -2.924487 44.229912
v -22.114956 -4.114030 44.229912
v 0.000000 -4.114030 44.229912
v 22.114956 -4.114030 44.229912
v 22.114956 1.890598 22.114956
v 0.000000 1.890598 22.114956
v -22.114956 -2.924487 22.114956
v 22.428802 0.259044 -0.083750
v 0.327082 0.753348 0.500068
v -22.114956 -2.924487 0.000000
v 21.787874 -1.787237 -22.615023
v -0.313849 -1.292933 -22.031204
v -22.114956 -2.924487 -22.114956
v -22.114956 -4.114030 22.114956
v 0.000000 -4.114030 22.114956
v 22.114956 -4.114030 22.114956
v -22.114956 -4.114030 0.000000
v 0.000000 -4.114030 0.000000
v 22.114956 -4.114030 0.000000
v -22.114956 -4.114030 -22.114956
v 0.000000 -4.114030 -22.114956
v 22.114956 -4.114030 -22.114956
vt 0.913918 1.000000
vt 0.907893 0.992486
vt 0.682230 0.977990
vt 1.000000 0.059652
vt 0.992331 0.065834
vt 0.970315 0.307448
vt 0.032082 0.000000
vt 0.038941 0.007059
vt 0.276814 0.021724
vt 0.000000 0.941273
vt 0.006938 0.934610
vt 0.014605 0.712381
vt 0.753508 0.051111
vt 0.934527 0.774873
vt 0.685002 0.985290
vt 0.238945 0.730614
vt 0.228044 0.955927
vt 0.470506 0.745348
vt 0.456378 0.970599
vt 0.702367 0.760101
vt 0.265066 0.263495
vt 0.499841 0.278127
vt 0.515003 0.036408
vt 0.734924 0.292778
vt 0.757531 0.044709
vt 0.515389 0.029786
vt 0.273573 0.014883
vt 0.231753 0.949052
vt 0.456850 0.963512
vt 0.699306 0.755940
vt 0.470782 0.741402
vt 0.716864 0.527626
vt 0.485107 0.513030
vt 0.242549 0.726882
vt 0.253649 0.498453
vt 0.022489 0.483894
vt 0.030597 0.248882
vt 0.747433 0.291433
vt 0.501591 0.263514
vt 0.723836 0.533002
vt 0.479474 0.511704
vt 0.246951 0.246761
vt 0.023713 0.245551
vt 0.234903 0.500634
vt 0.015583 0.484085
vt 0.977541 0.304989
vt 0.955726 0.543297
vt 0.928121 0.770497
vt 0.948920 0.542241
vt 0.007682 0.715899
vn -1.000000 0.000000 0.000000
vn 0.000000 0.000000 -1.000000
vn 1.000000 0.000000 0.000000
vn 0.000000 0.000000 1.000000
vn 0.000000 -1.000000 0.000000
vn 0.000000 1.000000 0.000000
vn 0.052400 0.994400 -0.091800
vn 0.019900 0.995700 -0.091000
vn -0.074600 0.997200 0.000000
vn 0.144500 0.989500 0.000000
vn 0.020400 0.997100 -0.073000
vn -0.161700 0.986800 0.000000
vn 0.208100 0.955700 0.208100
vn 0.000000 0.977100 0.212700
vn -0.208100 0.955700 0.208100
vn 0.000000 0.998600 -0.052500
vn 0.000000 0.997300 -0.073300
vn -0.159300 0.983600 -0.084800
vn 0.212200 0.974800 -0.068600
vn -0.212400 0.975700 -0.054500
vn 0.050600 0.998700 0.000000
usemtl None
s off
f 4/1/1 3/2/1 12/3/1
f 8/4/2 7/5/2 24/6/2
f 6/7/3 5/8/3 18/9/3
f 2/10/4 1/11/4 30/12/4
f 24/6/5 7/5/5 20/13/5
f 21/14/6 4/1/6 11/15/6
f 35/16/6 9/17/6 2/10/6
f 38/18/6 10/19/6 9/17/6
f 41/20/6 11/15/6 10/19/6
f 44/21/5 18/9/5 5/8/5
f 47/22/5 19/23/5 18/9/5
f 50/24/5 20/13/5 19/23/5
f 15/25/3 20/13/3 7/5/3
f 16/26/3 19/23/3 20/13/3
f 17/27/3 18/9/3 19/23/3
f 9/17/1 14/28/1 1/11/1
f 10/19/1 13/29/1 14/28/1
f 11/15/1 12/3/1 13/29/1
f 12/3/5 48/30/5 45/31/5
f 48/30/5 49/32/5 46/33/5
f 49/32/5 50/24/5 47/22/5
f 13/29/5 45/31/5 42/34/5
f 45/31/5 46/33/5 43/35/5
f 46/33/5 47/22/5 44/21/5
f 14/28/5 42/34/5 30/12/5
f 42/34/5 43/35/5 31/36/5
f 43/35/5 44/21/5 32/37/5
f 15/25/7 39/38/7 36/39/7
f 39/38/8 40/40/8 37/41/8
f 40/40/9 41/20/9 38/18/9
f 17/27/10 16/26/10 36/39/10
f 33/42/11 36/39/11 37/41/11
f 37/41/12 38/18/12 35/16/12
f 17/27/13 33/42/13 27/43/13
f 33/42/14 34/44/14 28/45/14
f 28/45/15 34/44/15 35/16/15
f 8/4/16 23/46/16 39/38/16
f 39/38/16 23/46/16 22/47/16
f 40/40/17 22/47/17 21/14/17
f 3/2/5 26/48/5 48/30/5
f 26/48/5 25/49/5 49/32/5
f 25/49/5 24/6/5 50/24/5
f 27/43/4 32/37/4 5/8/4
f 28/45/4 31/36/4 32/37/4
f 29/50/4 30/12/4 31/36/4
f 21/14/2 26/48/2 3/2/2
f 22/47/2 25/49/2 26/48/2
f 23/46/2 24/6/2 25/49/2
f 11/15/1 4/1/1 12/3/1
f 23/46/2 8/4/2 24/6/2
f 17/27/3 6/7/3 18/9/3
f 29/50/4 2/10/4 30/12/4
f 50/24/5 24/6/5 20/13/5
f 41/20/6 21/14/6 11/15/6
f 29/50/6 35/16/6 2/10/6
f 35/16/6 38/18/6 9/17/6
f 38/18/6 41/20/6 10/19/6
f 32/37/5 44/21/5 5/8/5
f 44/21/5 47/22/5 18/9/5
f 47/22/5 50/24/5 19/23/5
f 8/4/3 15/25/3 7/5/3
f 15/25/3 16/26/3 20/13/3
f 16/26/3 17/27/3 19/23/3
f 2/10/1 9/17/1 1/11/1
f 9/17/1 10/19/1 14/28/1
f 10/19/1 11/15/1 13/29/1
f 13/29/5 12/3/5 45/31/5
f 45/31/5 48/30/5 46/33/5
f 46/33/5 49/32/5 47/22/5
f 14/28/5 13/29/5 42/34/5
f 42/34/5 45/31/5 43/35/5
f 43/35/5 46/33/5 44/21/5
f 1/11/5 14/28/5 30/12/5
f 30/12/5 42/34/5 31/36/5
f 31/36/5 43/35/5 32/37/5
f 16/26/10 15/25/10 36/39/10
f 36/39/8 39/38/8 37/41/8
f 37/41/18 40/40/18 38/18/18
f 33/42/19 17/27/19 36/39/19
f 34/44/16 33/42/16 37/41/16
f 34/44/20 37/41/20 35/16/20
f 6/7/6 17/27/6 27/43/6
f 27/43/14 33/42/14 28/45/14
f 29/50/6 28/45/6 35/16/6
f 15/25/21 8/4/21 39/38/21
f 40/40/11 39/38/11 22/47/11
f 41/20/9 40/40/9 21/14/9
f 12/3/5 3/2/5 48/30/5
f 48/30/5 26/48/5 49/32/5
f 49/32/5 25/49/5 50/24/5
f 6/7/4 27/43/4 5/8/4
f 27/43/4 28/45/4 32/37/4
f 28/45/4 29/50/4 31/36/4
f 4/1/2 21/14/2 3/2/2
f 21/14/2 22/47/2 26/48/2
f 22/47/2 23/46/2 25/49/2
