# Blender v2.76 (sub 0) OBJ File: 'tank_body.blend'
# www.blender.org
o Cube_Cube.001
v -0.149659 1.045038 0.391444
v -0.149659 1.344356 0.391444
v -0.149659 1.045038 0.092126
v -0.149659 1.344356 0.092126
v 0.149659 1.045038 0.391444
v 0.149659 1.344356 0.391444
v 0.149659 1.045038 0.092126
v 0.149659 1.344356 0.092126
vn -1.000000 0.000000 0.000000
vn 0.000000 0.000000 -1.000000
vn 1.000000 0.000000 0.000000
vn 0.000000 0.000000 1.000000
vn 0.000000 -1.000000 0.000000
vn 0.000000 1.000000 0.000000
s off
f 2//1 4//1 3//1 1//1
f 4//2 8//2 7//2 3//2
f 8//3 6//3 5//3 7//3
f 6//4 2//4 1//4 5//4
f 1//5 3//5 7//5 5//5
f 6//6 8//6 4//6 2//6
o {"class":"body","meshType":"physi"}_Cube.003
v -1.734662 -1.168000 2.503573
v -1.734662 1.168000 2.503573
v -1.734662 -1.168000 -2.503573
v -1.734662 1.168000 -2.503573
v 1.734662 -1.168000 2.503573
v 1.734662 1.168000 2.503573
v 1.734662 -1.168000 -2.503573
v 1.734662 1.168000 -2.503573
vn -1.000000 0.000000 0.000000
vn 0.000000 0.000000 -1.000000
vn 1.000000 0.000000 0.000000
vn 0.000000 0.000000 1.000000
vn 0.000000 -1.000000 0.000000
vn 0.000000 1.000000 0.000000
s off
f 12//7 11//7 9//7
f 16//8 15//8 11//8
f 14//9 13//9 15//9
f 10//10 9//10 13//10
f 11//11 15//11 13//11
f 16//12 12//12 10//12
f 10//7 12//7 9//7
f 12//8 16//8 11//8
f 16//9 14//9 15//9
f 14//10 10//10 13//10
f 9//11 11//11 13//11
f 14//12 16//12 10//12
o body_Cube
v -1.734662 -1.168000 2.503573
v -1.734662 0.695672 2.503573
v -1.734662 -1.168000 -2.503573
v -1.734662 0.590761 -2.503573
v 1.734662 -1.168000 2.503573
v 1.734662 0.695672 2.503573
v 1.734662 -1.168000 -2.503573
v 1.734662 0.590761 -2.503573
v -1.734662 1.168000 1.251787
v -1.734662 1.168000 -0.749300
v -1.734662 0.996262 -1.679607
v -1.734662 -1.168000 -1.679607
v -1.734662 -1.168000 -0.749300
v -1.734662 -1.168000 1.251787
v 1.734662 0.996262 -1.679607
v 1.734662 1.168000 -0.749300
v 1.734662 1.168000 1.251787
v 1.734662 -1.168000 1.251787
v 1.734662 -1.168000 -0.749300
v 1.734662 -1.168000 -1.679607
v -0.921828 0.590761 -2.503573
v 0.921828 0.590761 -2.503573
v 0.921828 -1.168000 -2.503573
v -0.921828 -1.168000 -2.503573
v 0.921828 0.695672 2.503573
v -0.921828 0.695672 2.503573
v -0.921828 -1.168000 2.503573
v 0.921828 -1.168000 2.503573
v 0.921828 1.168000 1.251787
v -0.921828 1.168000 1.251787
v 0.921828 1.168000 -0.749300
v -0.921828 1.168000 -0.749300
v 0.921828 0.996262 -1.679607
v -0.921828 0.996262 -1.679607
v -0.921828 -1.168000 1.251787
v 0.921828 -1.168000 1.251787
v -0.921828 -1.168000 -0.749300
v 0.921828 -1.168000 -0.749300
v -0.921828 -1.168000 -1.679607
v 0.921828 -1.168000 -1.679607
vt 0.623882 0.574125
vt 0.623882 0.727861
vt 0.551858 0.727861
vt 0.633506 0.220408
vt 0.787242 0.220408
vt 0.787242 0.291460
vt 0.186199 0.179121
vt 0.186199 0.016215
vt 0.295620 0.016215
vt 0.178669 0.523667
vt 0.015763 0.523667
vt 0.015763 0.452616
vt 0.902425 0.541270
vt 0.972402 0.541270
vt 0.972402 0.612206
vt 0.633505 0.452616
vt 0.633505 0.523668
vt 0.553232 0.523668
vt 0.295620 0.452616
vt 0.295620 0.523667
vt 0.470538 0.452616
vt 0.470538 0.523668
vt 0.553232 0.452616
vt 0.902425 0.864570
vt 0.972402 0.864570
vt 0.972402 0.972337
vt 0.902425 0.692296
vt 0.972402 0.692296
vt 0.902425 0.612206
vt 0.623882 0.169951
vt 0.551858 0.205396
vt 0.551858 0.016215
vt 0.470538 0.220408
vt 0.470538 0.016215
vt 0.295620 0.220408
vt 0.186199 0.564954
vt 0.295620 0.727861
vt 0.470538 0.727861
vt 0.551858 0.538679
vt 0.673727 0.612206
vt 0.743704 0.612206
vt 0.743704 0.692296
vt 0.673727 0.692296
vt 0.743704 0.864570
vt 0.673727 0.864570
vt 0.743704 0.972337
vt 0.902425 0.972337
vt 0.553232 0.220408
vt 0.553232 0.291460
vt 0.470538 0.291460
vt 0.295620 0.291460
vt 0.178669 0.291459
vt 0.178669 0.452616
vt 0.633505 0.291460
vt 0.673727 0.541270
vt 0.743704 0.541270
vt 0.015763 0.291459
vt 0.015763 0.220408
vt 0.787242 0.452616
vt 0.787242 0.523668
vt 0.623882 0.016215
vt 0.186199 0.727861
vt 0.673727 0.972337
vt 0.178669 0.220408
vn -1.000000 0.000000 0.000000
vn 0.000000 0.000000 -1.000000
vn 1.000000 0.000000 0.000000
vn 0.000000 0.000000 1.000000
vn 0.000000 -1.000000 -0.000000
vn 0.000000 0.897200 -0.441600
vn 0.000000 0.935600 0.353000
vn 0.000000 1.000000 0.000000
vn 0.000000 0.983400 -0.181500
s off
f 20/1/13 19/2/13 28/3/13
f 24/4/14 23/5/14 39/6/14
f 22/7/15 21/8/15 34/9/15
f 18/10/16 17/11/16 43/12/16
f 39/13/17 23/14/17 36/15/17
f 37/16/18 20/17/18 27/18/18
f 46/19/19 25/20/19 18/10/19
f 48/21/20 26/22/20 25/20/20
f 50/23/21 27/18/21 26/22/21
f 52/24/17 34/25/17 21/26/17
f 54/27/17 35/28/17 34/25/17
f 56/29/17 36/15/17 35/28/17
f 24/30/15 31/31/15 36/32/15
f 31/31/15 32/33/15 35/34/15
f 33/35/15 34/9/15 35/34/15
f 18/36/13 25/20/13 30/37/13
f 26/22/13 29/38/13 30/37/13
f 27/39/13 28/3/13 29/38/13
f 28/40/17 55/41/17 53/42/17
f 55/41/17 56/29/17 54/27/17
f 29/43/17 53/42/17 51/44/17
f 53/42/17 54/27/17 52/24/17
f 30/45/17 51/44/17 43/46/17
f 51/44/17 52/24/17 44/47/17
f 31/48/21 49/49/21 47/50/21
f 49/49/21 50/23/21 48/21/21
f 32/33/20 47/50/20 45/51/20
f 47/50/20 48/21/20 46/19/20
f 33/35/19 45/51/19 41/52/19
f 45/51/19 46/19/19 42/53/19
f 24/4/18 38/54/18 49/49/18
f 38/54/18 37/16/18 50/23/18
f 19/55/17 40/56/17 55/41/17
f 40/56/17 39/13/17 56/29/17
f 41/52/16 44/57/16 21/58/16
f 42/53/16 43/12/16 44/57/16
f 37/16/14 40/59/14 19/60/14
f 38/54/14 39/6/14 40/59/14
f 27/39/13 20/1/13 28/3/13
f 38/54/14 24/4/14 39/6/14
f 33/35/15 22/7/15 34/9/15
f 42/53/16 18/10/16 43/12/16
f 56/29/17 39/13/17 36/15/17
f 50/23/18 37/16/18 27/18/18
f 42/53/19 46/19/19 18/10/19
f 46/19/20 48/21/20 25/20/20
f 48/21/21 50/23/21 26/22/21
f 44/47/17 52/24/17 21/26/17
f 52/24/17 54/27/17 34/25/17
f 54/27/17 56/29/17 35/28/17
f 23/61/15 24/30/15 36/32/15
f 36/32/15 31/31/15 35/34/15
f 32/33/15 33/35/15 35/34/15
f 17/62/13 18/36/13 30/37/13
f 25/20/13 26/22/13 30/37/13
f 26/22/13 27/39/13 29/38/13
f 29/43/17 28/40/17 53/42/17
f 53/42/17 55/41/17 54/27/17
f 30/45/17 29/43/17 51/44/17
f 51/44/17 53/42/17 52/24/17
f 17/63/17 30/45/17 43/46/17
f 43/46/17 51/44/17 44/47/17
f 32/33/21 31/48/21 47/50/21
f 47/50/21 49/49/21 48/21/21
f 33/35/20 32/33/20 45/51/20
f 45/51/20 47/50/20 46/19/20
f 22/64/19 33/35/19 41/52/19
f 41/52/19 45/51/19 42/53/19
f 31/48/18 24/4/18 49/49/18
f 49/49/18 38/54/18 50/23/18
f 28/40/17 19/55/17 55/41/17
f 55/41/17 40/56/17 56/29/17
f 22/64/16 41/52/16 21/58/16
f 41/52/16 42/53/16 44/57/16
f 20/17/14 37/16/14 19/60/14
f 37/16/14 38/54/14 40/59/14
