# Blender v2.76 (sub 0) OBJ File: ''
# www.blender.org
o Cylinder_cage_bottom_Cylinder.003
v 0.000000 1.000000 -1.643226
v 0.707107 1.000000 -1.350333
v 0.707107 -1.000000 -1.350333
v 1.000000 1.000000 -0.643226
v 1.000000 -1.000000 -0.643226
v 0.712129 0.980949 0.063881
v 0.707107 -1.000000 0.063881
v 0.000000 1.000000 0.356774
v 0.000000 -1.000000 0.356774
v -0.707107 1.000000 0.063881
v -0.707107 -1.000000 0.063881
v -1.000000 1.000000 -0.643226
v -1.000000 -1.000000 -0.643226
v -0.702085 0.980949 -1.350332
v 0.000000 -1.000000 -1.643226
v -0.707107 -1.000000 -1.350332
vt 0.499576 0.007703
vt 0.622422 0.007703
vt 0.622422 0.328717
vt 0.745269 0.007703
vt 0.745269 0.328717
vt 0.868115 0.007703
vt 0.868115 0.328717
vt 0.990962 0.007703
vt 0.990962 0.328717
vt 0.008189 0.007703
vt 0.131036 0.007703
vt 0.131036 0.328717
vt 0.253882 0.007703
vt 0.253882 0.328717
vt 0.000000 0.000000
vt 0.376729 0.007703
vt 0.499576 0.328717
vt 0.376729 0.328717
vt 0.596916 0.690011
vt 0.596916 0.565326
vt 0.809767 0.778176
vt 0.008189 0.328717
vt 0.685082 0.778176
vt 0.897932 0.565326
vt 0.897932 0.690011
vt 0.685082 0.477160
vt 0.809767 0.477160
vn 0.382700 0.000000 -0.923900
vn 0.923900 0.000000 -0.382700
vn 0.925700 -0.001800 0.378400
vn 0.926200 -0.002300 0.377000
vn 0.924400 -0.000500 0.381400
vn 0.380900 -0.000200 0.924600
vn 0.380400 -0.000000 0.924800
vn 0.382100 -0.000700 0.924100
vn -0.382700 -0.000000 0.923900
vn -0.923900 -0.000000 0.382700
vn 0.015800 0.999800 -0.015800
vn -0.000100 1.000000 0.000100
vn -0.384500 0.000200 -0.923100
vn -0.385000 0.000000 -0.922900
vn -0.383200 0.000700 -0.923700
vn -0.922100 0.001800 -0.387000
vn -0.921500 0.002300 -0.388300
vn -0.923300 0.000500 -0.384000
vn 0.000000 -1.000000 -0.000000
vn -0.016000 0.999700 0.016000
vn -0.015900 0.999700 0.015900
vn 0.923900 -0.000000 0.382700
vn 0.382700 -0.001000 0.923900
vn -0.382700 0.001000 -0.923900
vn -0.923900 0.000000 -0.382700
vn -0.000000 1.000000 0.000000
s 1
f 1/1/1 2/2/1 3/3/1
f 2/2/2 4/4/2 5/5/2
f 4/4/3 6/6/4 7/7/5
f 6/6/6 8/8/7 9/9/8
f 8/10/9 10/11/9 11/12/9
f 10/11/10 12/13/10 13/14/10
f 12/15/11 8/15/11 14/13/12
f 14/16/13 1/1/14 15/17/15
f 12/13/16 14/16/17 16/18/18
f 13/19/19 16/20/19 9/21/19
f 4/15/20 1/15/21 6/4/12
f 15/17/1 1/1/1 3/3/1
f 3/3/2 2/2/2 5/5/2
f 5/5/22 4/4/3 7/7/5
f 7/7/23 6/6/6 9/9/8
f 9/22/9 8/10/9 11/12/9
f 11/12/10 10/11/10 13/14/10
f 8/15/11 6/6/12 14/15/12
f 16/18/24 14/16/13 15/17/15
f 13/14/25 12/13/16 16/18/18
f 11/23/19 13/19/19 9/21/19
f 5/24/19 7/25/19 15/26/19
f 3/27/19 5/24/19 15/26/19
f 16/20/19 15/26/19 7/25/19
f 9/21/19 16/20/19 7/25/19
f 14/15/12 6/15/12 1/16/21
f 2/1/26 1/15/21 4/2/20
f 10/11/26 8/10/11 12/15/11
o Cylinder_cage_top_Cylinder.002
v 1.005301 1.000000 -1.648527
v 1.421710 1.000000 -0.643226
v -1.005301 1.000000 0.362075
v -1.005301 1.663978 0.362075
v -1.421710 1.663978 -0.643226
v 0.000000 1.000000 0.778484
v -1.005301 1.000000 -1.648527
v 0.000000 1.000000 -2.064936
v 1.005301 1.000000 0.362075
v -1.421710 1.000000 -0.643226
v 1.005301 1.663978 -1.648527
v 0.000000 1.663978 -2.064936
v 1.421710 1.663978 -0.643226
v 1.005301 1.663978 0.362075
v 0.000000 1.663978 0.778484
v -1.005301 1.663978 -1.648527
vt 0.129055 0.993052
vt 0.129055 0.917602
vt 0.252703 0.917602
vt 0.000000 0.000000
vt 0.500000 0.993052
vt 0.994593 0.993052
vt 0.350660 0.864040
vt 0.155951 0.864040
vt 0.488339 0.726360
vt 0.870944 0.993052
vt 0.870944 0.917601
vt 0.994593 0.917602
vt 0.623648 0.993052
vt 0.623648 0.917601
vt 0.747296 0.917601
vt 0.252703 0.993052
vt 0.376352 0.917602
vt 0.005407 0.993052
vt 0.005407 0.917602
vt 0.747296 0.993052
vt 0.500000 0.917602
vt 0.376352 0.993052
vt 0.488339 0.531652
vt 0.018272 0.726360
vt 0.350660 0.393972
vt 0.155951 0.393972
vt 0.018272 0.531652
vn -0.923900 0.000000 0.382700
vn 0.000000 -1.000000 -0.000000
vn 0.000000 1.000000 0.000000
vn 0.382700 -0.000000 0.923900
vn 0.923900 0.000000 -0.382700
vn -0.923900 0.000000 -0.382700
vn -0.382700 -0.000000 0.923900
vn 0.923900 0.000000 0.382700
vn 0.382700 0.000000 -0.923900
vn -0.382700 0.000000 -0.923900
s 1
f 19/28/27 20/29/27 21/30/27
f 24/31/28 25/31/28 23/32/28
f 23/31/28 25/33/28 22/31/28
f 27/34/29 28/35/29 29/36/29
f 25/37/30 30/38/30 31/39/30
f 17/40/31 27/41/31 29/42/31
f 26/43/32 21/30/32 32/44/32
f 22/45/33 31/46/33 20/29/33
f 18/47/34 29/42/34 30/38/34
f 24/32/35 28/48/35 27/41/35
f 23/49/36 32/44/36 28/48/36
f 26/43/27 19/28/27 21/30/27
f 23/31/28 22/31/28 26/49/28
f 30/50/29 29/36/29 28/35/29
f 30/50/29 32/51/29 31/52/29
f 32/51/29 30/50/29 28/35/29
f 20/53/29 31/52/29 21/54/29
f 32/51/29 21/54/29 31/52/29
f 22/33/30 25/37/30 31/39/30
f 18/47/31 17/40/31 29/42/31
f 23/49/32 26/43/32 32/44/32
f 19/28/33 22/45/33 20/29/33
f 25/37/34 18/47/34 30/38/34
f 17/40/35 24/32/35 27/41/35
f 24/32/36 23/49/36 28/48/36
f 22/31/28 19/28/28 26/43/28
f 18/31/28 24/40/28 17/47/28
f 25/31/28 24/31/28 18/37/28
